<svg xmlns="http://www.w3.org/2000/svg" viewBox="0 0 100 100" role="img" aria-label="Swasthvan Ayurveda emblem">
  <circle cx="50" cy="50" r="44" fill="none" stroke="#163720" stroke-width="2.4" stroke-linecap="round" stroke-dasharray="250 26" transform="rotate(-18 50 50)"/>
  <path d="M50 22c-7 6-10 15-8 27 5-3 9-9 9-17 0 8 3 14 8 17 2-12-2-21-9-27z" fill="#57ac2c"/>
  <path d="M50 30c-8-1-15 3-19 11 6 2 13 1 18-4-6 6-8 12-7 18 9-4 12-15 8-25z" fill="#74c34a"/>
  <path d="M50 30c8-1 15 3 19 11-6 2-13 1-18-4 6 6 8 12 7 18-9-4-12-15-8-25z" fill="#2f6d3f"/>
  <path d="M28 55h44a2 2 0 0 1 2 2.4C71.5 68 61.7 75 50 75S28.5 68 26 57.4A2 2 0 0 1 28 55z" fill="#163720"/>
  <rect x="33" y="40" width="5.4" height="20" rx="2.7" transform="rotate(24 35.7 50)" fill="#1c4527"/>
  <g stroke="#4f9060" stroke-width="1.6" fill="#74c34a">
    <path d="M78 46c0 8-3 15-9 20" fill="none" stroke-linecap="round"/>
    <ellipse cx="80" cy="49" rx="3.4" ry="1.8" transform="rotate(35 80 49)"/>
    <ellipse cx="76" cy="56" rx="3.4" ry="1.8" transform="rotate(20 76 56)"/>
    <ellipse cx="71" cy="63" rx="3.2" ry="1.7" transform="rotate(8 71 63)"/>
  </g>
</svg>
